<mxfile host="app.diagrams.net" modified="2023-05-06T00:41:30.953Z" agent="Mozilla/5.0 (Windows NT 10.0; Win64; x64) AppleWebKit/537.36 (KHTML, like Gecko) Chrome/112.0.0.0 Safari/537.36" version="21.2.9" etag="T50PCN8WzXu8I_zq6oq8" type="github">
  <diagram name="ページ1" id="Cwru5SnEIbsrMAK2yV8S">
    <mxGraphModel>
      <root>
        <mxCell id="0" />
        <mxCell id="1" parent="0" />
      </root>
    </mxGraphModel>
  </diagram>
</mxfile>
